<svg xmlns="http://www.w3.org/2000/svg" xmlns:xlink="http://www.w3.org/1999/xlink" width="500" zoomAndPan="magnify" viewBox="0 0 375 374.999991" height="500" preserveAspectRatio="xMidYMid meet" version="1.0"><defs><clipPath id="a2fbdd790e"><path d="M 23.46875 26.570312 L 179.3125 26.570312 L 179.3125 182.410156 L 23.46875 182.410156 Z M 23.46875 26.570312 " clip-rule="nonzero"/></clipPath><clipPath id="77ae84fa64"><path d="M 0.46875 0.570312 L 156.3125 0.570312 L 156.3125 156.410156 L 0.46875 156.410156 Z M 0.46875 0.570312 " clip-rule="nonzero"/></clipPath><clipPath id="55b61c0c4e"><rect x="0" width="157" y="0" height="157"/></clipPath><clipPath id="6b6dd96ebb"><path d="M 195.6875 26.570312 L 351.53125 26.570312 L 351.53125 182.410156 L 195.6875 182.410156 Z M 195.6875 26.570312 " clip-rule="nonzero"/></clipPath><clipPath id="af23316322"><path d="M 0.6875 0.570312 L 156.53125 0.570312 L 156.53125 156.410156 L 0.6875 156.410156 Z M 0.6875 0.570312 " clip-rule="nonzero"/></clipPath><clipPath id="522470352e"><rect x="0" width="157" y="0" height="157"/></clipPath><clipPath id="6ef796764b"><path d="M 195.6875 197.234375 L 351.53125 197.234375 L 351.53125 353.074219 L 195.6875 353.074219 Z M 195.6875 197.234375 " clip-rule="nonzero"/></clipPath><clipPath id="bd7da0a9b1"><path d="M 0.6875 0.234375 L 156.53125 0.234375 L 156.53125 156.074219 L 0.6875 156.074219 Z M 0.6875 0.234375 " clip-rule="nonzero"/></clipPath><clipPath id="6d1f90ff83"><rect x="0" width="157" y="0" height="157"/></clipPath><clipPath id="b120f1f15e"><path d="M 23.46875 197.234375 L 179.3125 197.234375 L 179.3125 353.074219 L 23.46875 353.074219 Z M 23.46875 197.234375 " clip-rule="nonzero"/></clipPath><clipPath id="46a7f65e66"><path d="M 0.46875 0.234375 L 156.3125 0.234375 L 156.3125 156.074219 L 0.46875 156.074219 Z M 0.46875 0.234375 " clip-rule="nonzero"/></clipPath><clipPath id="99f20e6386"><rect x="0" width="157" y="0" height="157"/></clipPath><clipPath id="96de275506"><path d="M 23.46875 26.570312 L 179.3125 26.570312 L 179.3125 182.410156 L 23.46875 182.410156 Z M 23.46875 26.570312 " clip-rule="nonzero"/></clipPath><clipPath id="828d932d18"><path d="M 179.3125 182.410156 L 23.46875 182.410156 L 23.46875 26.570312 Z M 179.3125 182.410156 " clip-rule="nonzero"/></clipPath><clipPath id="78cc7090e3"><path d="M 0.46875 0.570312 L 156.3125 0.570312 L 156.3125 156.410156 L 0.46875 156.410156 Z M 0.46875 0.570312 " clip-rule="nonzero"/></clipPath><clipPath id="57f8b95653"><path d="M 156.3125 156.410156 L 0.46875 156.410156 L 0.46875 0.570312 Z M 156.3125 156.410156 " clip-rule="nonzero"/></clipPath><clipPath id="322b5b21d9"><rect x="0" width="157" y="0" height="157"/></clipPath><clipPath id="c8fff0b974"><path d="M 159.054688 104.488281 L 329.71875 104.488281 L 329.71875 275.15625 L 159.054688 275.15625 Z M 159.054688 104.488281 " clip-rule="nonzero"/></clipPath><clipPath id="78c4d82237"><path d="M 329.71875 189.820312 L 244.386719 104.488281 L 244.386719 147.15625 L 159.054688 147.15625 L 159.054688 232.488281 L 244.386719 232.488281 L 244.386719 275.15625 Z M 329.71875 189.820312 " clip-rule="nonzero"/></clipPath><clipPath id="2a9f6e4646"><path d="M 0.0546875 0.488281 L 170.71875 0.488281 L 170.71875 171.15625 L 0.0546875 171.15625 Z M 0.0546875 0.488281 " clip-rule="nonzero"/></clipPath><clipPath id="54eaf5a5ce"><path d="M 170.71875 85.820312 L 85.386719 0.488281 L 85.386719 43.15625 L 0.0546875 43.15625 L 0.0546875 128.488281 L 85.386719 128.488281 L 85.386719 171.15625 Z M 170.71875 85.820312 " clip-rule="nonzero"/></clipPath><clipPath id="8932aa8f3b"><rect x="0" width="171" y="0" height="172"/></clipPath><clipPath id="9e41ccdc77"><path d="M 141.925781 147.335938 L 157.308594 147.335938 L 157.308594 232.308594 L 141.925781 232.308594 Z M 141.925781 147.335938 " clip-rule="nonzero"/></clipPath><clipPath id="829c31f1bd"><path d="M 0.925781 0.335938 L 16.308594 0.335938 L 16.308594 85.308594 L 0.925781 85.308594 Z M 0.925781 0.335938 " clip-rule="nonzero"/></clipPath><clipPath id="1a06bde0d7"><rect x="0" width="17" y="0" height="86"/></clipPath><clipPath id="7cb224b617"><path d="M 123.621094 147.335938 L 139.003906 147.335938 L 139.003906 232.308594 L 123.621094 232.308594 Z M 123.621094 147.335938 " clip-rule="nonzero"/></clipPath><clipPath id="5b3521ba90"><path d="M 0.621094 0.335938 L 16.003906 0.335938 L 16.003906 85.308594 L 0.621094 85.308594 Z M 0.621094 0.335938 " clip-rule="nonzero"/></clipPath><clipPath id="e7122ac7ab"><rect x="0" width="17" y="0" height="86"/></clipPath><clipPath id="5f543f39fb"><path d="M 104.730469 147.335938 L 120.113281 147.335938 L 120.113281 232.308594 L 104.730469 232.308594 Z M 104.730469 147.335938 " clip-rule="nonzero"/></clipPath><clipPath id="2bf7432095"><path d="M 0.730469 0.335938 L 16.113281 0.335938 L 16.113281 85.308594 L 0.730469 85.308594 Z M 0.730469 0.335938 " clip-rule="nonzero"/></clipPath><clipPath id="064055986c"><rect x="0" width="17" y="0" height="86"/></clipPath><clipPath id="bb888be115"><path d="M 86.425781 147.335938 L 101.808594 147.335938 L 101.808594 232.308594 L 86.425781 232.308594 Z M 86.425781 147.335938 " clip-rule="nonzero"/></clipPath><clipPath id="7adb3fdcc6"><path d="M 0.425781 0.335938 L 15.808594 0.335938 L 15.808594 85.308594 L 0.425781 85.308594 Z M 0.425781 0.335938 " clip-rule="nonzero"/></clipPath><clipPath id="786c4ebd6c"><rect x="0" width="16" y="0" height="86"/></clipPath></defs><g clip-path="url(#a2fbdd790e)"><g transform="matrix(1, 0, 0, 1, 23, 26)"><g clip-path="url(#55b61c0c4e)"><g clip-path="url(#77ae84fa64)"><path fill="#000000" d="M 0.46875 0.570312 L 156.3125 0.570312 L 156.3125 156.410156 L 0.46875 156.410156 Z M 0.46875 0.570312 " fill-opacity="1" fill-rule="nonzero"/></g></g></g></g><g clip-path="url(#6b6dd96ebb)"><g transform="matrix(1, 0, 0, 1, 195, 26)"><g clip-path="url(#522470352e)"><g clip-path="url(#af23316322)"><path fill="#000000" d="M 0.6875 0.570312 L 156.53125 0.570312 L 156.53125 156.410156 L 0.6875 156.410156 Z M 0.6875 0.570312 " fill-opacity="1" fill-rule="nonzero"/></g></g></g></g><g clip-path="url(#6ef796764b)"><g transform="matrix(1, 0, 0, 1, 195, 197)"><g clip-path="url(#6d1f90ff83)"><g clip-path="url(#bd7da0a9b1)"><path fill="#0cc0df" d="M 0.6875 0.234375 L 156.53125 0.234375 L 156.53125 156.074219 L 0.6875 156.074219 Z M 0.6875 0.234375 " fill-opacity="1" fill-rule="nonzero"/></g></g></g></g><g clip-path="url(#b120f1f15e)"><g transform="matrix(1, 0, 0, 1, 23, 197)"><g clip-path="url(#99f20e6386)"><g clip-path="url(#46a7f65e66)"><path fill="#000000" d="M 0.46875 0.234375 L 156.3125 0.234375 L 156.3125 156.074219 L 0.46875 156.074219 Z M 0.46875 0.234375 " fill-opacity="1" fill-rule="nonzero"/></g></g></g></g><g clip-path="url(#96de275506)"><g clip-path="url(#828d932d18)"><g transform="matrix(1, 0, 0, 1, 23, 26)"><g clip-path="url(#322b5b21d9)"><g clip-path="url(#78cc7090e3)"><g clip-path="url(#57f8b95653)"><path fill="#737373" d="M 0.46875 0.570312 L 156.3125 0.570312 L 156.3125 156.410156 L 0.46875 156.410156 Z M 0.46875 0.570312 " fill-opacity="1" fill-rule="nonzero"/></g></g></g></g></g></g><g clip-path="url(#c8fff0b974)"><g clip-path="url(#78c4d82237)"><g transform="matrix(1, 0, 0, 1, 159, 104)"><g clip-path="url(#8932aa8f3b)"><g clip-path="url(#2a9f6e4646)"><g clip-path="url(#54eaf5a5ce)"><path fill="#ffd21f" d="M 170.71875 0.488281 L 170.71875 171.15625 L 0.0546875 171.15625 L 0.0546875 0.488281 Z M 170.71875 0.488281 " fill-opacity="1" fill-rule="nonzero"/></g></g></g></g></g></g><g clip-path="url(#9e41ccdc77)"><g transform="matrix(1, 0, 0, 1, 141, 147)"><g clip-path="url(#1a06bde0d7)"><g clip-path="url(#829c31f1bd)"><path fill="#ffd21f" d="M 0.925781 0.335938 L 16.308594 0.335938 L 16.308594 85.304688 L 0.925781 85.304688 Z M 0.925781 0.335938 " fill-opacity="1" fill-rule="nonzero"/></g></g></g></g><g clip-path="url(#7cb224b617)"><g transform="matrix(1, 0, 0, 1, 123, 147)"><g clip-path="url(#e7122ac7ab)"><g clip-path="url(#5b3521ba90)"><path fill="#ffd21f" d="M 0.621094 0.335938 L 16.003906 0.335938 L 16.003906 85.304688 L 0.621094 85.304688 Z M 0.621094 0.335938 " fill-opacity="1" fill-rule="nonzero"/></g></g></g></g><g clip-path="url(#5f543f39fb)"><g transform="matrix(1, 0, 0, 1, 104, 147)"><g clip-path="url(#064055986c)"><g clip-path="url(#2bf7432095)"><path fill="#ffd21f" d="M 0.730469 0.335938 L 16.113281 0.335938 L 16.113281 85.304688 L 0.730469 85.304688 Z M 0.730469 0.335938 " fill-opacity="1" fill-rule="nonzero"/></g></g></g></g><g clip-path="url(#bb888be115)"><g transform="matrix(1, 0, 0, 1, 86, 147)"><g clip-path="url(#786c4ebd6c)"><g clip-path="url(#7adb3fdcc6)"><path fill="#ffd21f" d="M 0.425781 0.335938 L 15.808594 0.335938 L 15.808594 85.304688 L 0.425781 85.304688 Z M 0.425781 0.335938 " fill-opacity="1" fill-rule="nonzero"/></g></g></g></g></svg>